<?xml version="1.0" encoding="UTF-8"?>
<svg width="800px" height="540px" viewBox="0 0 800 540" version="1.1" xmlns="http://www.w3.org/2000/svg" xmlns:xlink="http://www.w3.org/1999/xlink">
    <!-- Generator: Sketch 58 (84663) - https://sketch.com -->
    <title>logo</title>
    <desc>Created with Sketch.</desc>
    <g id="logo" stroke="none" stroke-width="1" fill="none" fill-rule="evenodd">
        <g id="Group" transform="translate(384.030519, 273.126709) rotate(-7.000000) translate(-384.030519, -273.126709) translate(166.030519, 66.626709)">
            <path d="M142.333617,2.84217094e-14 C172.968074,2.84217094e-14 223.00198,19.0512313 237.023532,52.6154073 C253.880178,8.66240299 275.697276,1.19331686 301.802672,9.64144897 C381.477354,35.4254761 424.444579,102.573425 414.969481,170.076538 C411.889477,192.019305 391.557934,203.118222 353.974852,203.373291 C398.387902,205.687196 424.386111,220.045839 431.969481,246.449219 C451.324461,313.838379 374.77838,412.576233 312.363097,412.576233 C270.067111,412.576233 248.653633,391.883749 236.172521,361.304401 C233.814117,355.526195 231.5657,349.954372 229.425229,344.572752 L229.508138,343.794556 C224.311705,396.508057 181.169239,412.576233 159.171507,412.576233 C52.6967148,412.576233 -10.5274548,304.156813 1.44653165,227.057983 C7.86912443,185.703804 38.0113746,175.713228 91.8732822,197.086257 L92.764,197.443 L92.0125895,197.097223 C61.5553591,182.983583 42.9882959,168.112512 36.3113998,152.484009 C9.06069791,88.6987305 71.5555404,2.84217094e-14 142.333617,2.84217094e-14 Z M92.764,197.443 L93.0675516,197.5836 C97.3062505,199.527907 101.77116,201.457804 106.462279,203.373291 C102.050219,201.332063 97.7754785,199.472406 93.638056,197.79432 L92.764,197.443 Z" id="fill" fill-opacity="0.84" fill="#3C8516"></path>
            <path d="M204.271666,387.761475 C196.202625,404.304647 181.169239,412.576233 159.171507,412.576233 C52.6967148,412.576233 -10.5274548,304.156813 1.44653165,227.057983 C8.42761075,182.107788 43.4328598,174.212891 106.462279,203.373291 C67.3696193,187.410899 43.985993,170.447805 36.3113998,152.484009 C9.06069791,88.6987305 71.5555404,2.84217094e-14 142.333617,2.84217094e-14 C205.702262,2.84217094e-14 273.046446,77.4233398 233.969481,125.521667 C194.892516,173.619995 165.801268,132.885925 136.038084,119.9039 C265.864684,174.076538 168.768945,412.576233 312.363097,412.576233 C374.77838,412.576233 451.324461,313.838379 431.969481,246.449219 C424.386111,220.045839 398.387902,205.687196 353.974852,203.373291 C391.557934,203.118222 411.889477,192.019305 414.969481,170.076538 C424.444579,102.573425 381.477354,35.4254761 301.802672,9.64144897 C274.091569,0.673683987 257.480505,9.26835969 251.969481,35.4254761" id="outline" stroke="#167128" stroke-width="17" stroke-linecap="round" stroke-linejoin="round"></path>
            <ellipse id="Oval" fill="#167128" cx="324.469481" cy="123.873291" rx="9.5" ry="17.5"></ellipse>
            <ellipse id="Oval-Copy" fill="#167128" cx="324.469481" cy="297.873291" rx="9.5" ry="17.5"></ellipse>
        </g>
    </g>
</svg>